<?xml version="1.0" standalone="no"?><!DOCTYPE svg PUBLIC "-//W3C//DTD SVG 1.1//EN" "http://www.w3.org/Graphics/SVG/1.1/DTD/svg11.dtd"><svg class="icon" width="200px" height="200.00px" viewBox="0 0 1024 1024" version="1.1" xmlns="http://www.w3.org/2000/svg"><path fill="#d81e06" d="M596.1472 340.7104a81.4848 81.4848 0 1 0-81.4592 83.0976 82.304 82.304 0 0 0 81.4592-83.0976z m0 0"  /><path fill="#d81e06" d="M940.0576 807.424c0-78.4128-166.4-110.8736-237.8496-121.1648a19.712 19.712 0 0 0-5.3504 39.04c149.1712 21.4272 204.8 61.6704 204.8 82.1248 0 38.4-150.6816 94.4896-386.9952 94.4896S127.4624 845.824 127.4624 807.424c0-20.1216 55.1168-60.4672 202.624-81.92a19.6096 19.6096 0 0 0-5.4784-38.8096c-70.7584 10.2912-235.5456 42.752-235.5456 120.7296 0 88.0384 214.1184 133.9648 425.4976 133.9648s425.4976-45.9264 425.4976-133.9648z m0 0"  /><path fill="#d81e06" d="M501.3248 798.0288l13.44 12.8 13.2352-12.8c9.8304-9.6256 240.64-237.184 240.64-448.9984a253.9008 253.9008 0 1 0-507.7248-0.3328c0 217.9328 230.6304 440.1408 240.4608 449.3312z m-107.0592-457.3184a120.32 120.32 0 1 1 120.0384 122.4704 121.6512 121.6512 0 0 1-120.064-122.4704z m0 0"  /></svg>