<?xml version="1.0" standalone="no"?><!DOCTYPE svg PUBLIC "-//W3C//DTD SVG 1.1//EN" "http://www.w3.org/Graphics/SVG/1.1/DTD/svg11.dtd"><svg class="icon" width="200px" height="200.00px" viewBox="0 0 1024 1024" version="1.1" xmlns="http://www.w3.org/2000/svg"><path d="M0 41m30 0l964 0q30 0 30 30l0 882q0 30-30 30l-964 0q-30 0-30-30l0-882q0-30 30-30Z" fill="#F44336" /><path d="M6 231.212h1012a6 6 0 0 1 6 6v42.346a6 6 0 0 1-6 6H6a6 6 0 0 1-6-6v-42.346a6 6 0 0 1 6-6z" fill="#FFFFFF" /><path d="M83.027 117.99h137.522a6 6 0 0 1 6 6v42.347a6 6 0 0 1-6 6H83.027a6 6 0 0 1-6-6V123.99a6 6 0 0 1 6-6z" fill="#FFFFFF" /><path d="M512 607.11m-226.563 0a226.563 226.563 0 1 0 453.126 0 226.563 226.563 0 1 0-453.126 0Z" fill="#FFFFFF" /><path d="M463.68 672.53333334l172.53013333-172.84586667a5.33333333 5.33333333 0 0 1 7.53386667 7.54773333L471.216 680.08a5.33333333 5.33333333 0 0 1-7.536-7.54666666z" fill="#F44336" /><path d="M387.73333333 590.9632l81.36746667 81.5168a5.33333333 5.33333333 0 1 1-7.53386667 7.54773334l-81.36533333-81.52106667a5.33333333 5.33333333 0 1 1 7.53173333-7.54346667z" fill="#F44336" /><path d="M282.389 117.99h87.682a6 6 0 0 1 6 6v42.347a6 6 0 0 1-6 6h-87.682a6 6 0 0 1-6-6V123.99a6 6 0 0 1 6-6z" fill="#FFFFFF" /></svg>